<svg width="24" height="24" viewBox="0 0 24 24" fill="none" xmlns="http://www.w3.org/2000/svg">
<path d="M4.61523 19.3846L17.5383 6.46154" stroke="#E0E5F0" stroke-width="2"/>
<path d="M14.769 20.3077L23.0767 12" stroke="#E0E5F0" stroke-width="2"/>
<path d="M3.69238 9.23077L12.0001 0.92308" stroke="#E0E5F0" stroke-width="2"/>
<path d="M3.69212 9.23077L14.769 20.3077" stroke="#E0E5F0" stroke-width="2"/>
<path d="M5.0385 9.23077C5.0385 9.97423 4.43581 10.5769 3.69235 10.5769C2.94888 10.5769 2.34619 9.97423 2.34619 9.23077C2.34619 8.48731 2.94888 7.88461 3.69235 7.88461C4.43581 7.88461 5.0385 8.48731 5.0385 9.23077Z" fill="white" stroke="#E0E5F0"/>
<circle cx="14.769" cy="20.3077" r="1.34615" fill="white" stroke="#E0E5F0"/>
<path d="M5.96135 19.3846C5.96135 20.1281 5.35866 20.7308 4.6152 20.7308C3.87174 20.7308 3.26904 20.1281 3.26904 19.3846C3.26904 18.6412 3.87174 18.0385 4.6152 18.0385C5.35866 18.0385 5.96135 18.6412 5.96135 19.3846Z" fill="white" stroke="#E0E5F0"/>
</svg>
