<svg width="24" height="24" viewBox="0 0 24 24" fill="none" xmlns="http://www.w3.org/2000/svg">
<path d="M1.62988 20.2282L18.2452 3.6128" stroke="#E0E5F0" stroke-width="2"/>
<path d="M2.09131 19.7666L5.32207 3.15126L9.93817 11.459L21.9801 18.2774L17.7836 4.53588" stroke="#E0E5F0" stroke-width="2" stroke-linejoin="round"/>
<path d="M11.7451 11.6897C11.7451 12.5606 11.0391 13.2666 10.1682 13.2666C9.29732 13.2666 8.59131 12.5606 8.59131 11.6897C8.59131 10.8188 9.29732 10.1128 10.1682 10.1128C11.0391 10.1128 11.7451 10.8188 11.7451 11.6897Z" fill="white" stroke="#E0E5F0"/>
<path d="M19.3462 3.92308C19.3462 4.79399 18.6402 5.5 17.7693 5.5C16.8984 5.5 16.1924 4.79399 16.1924 3.92308C16.1924 3.05216 16.8984 2.34615 17.7693 2.34615C18.6402 2.34615 19.3462 3.05216 19.3462 3.92308Z" fill="white" stroke="#E0E5F0"/>
<path d="M7.34622 3.92308C7.34622 4.79399 6.6402 5.5 5.7693 5.5C4.89839 5.5 4.19238 4.79399 4.19238 3.92308C4.19238 3.05216 4.89839 2.34615 5.7693 2.34615C6.6402 2.34615 7.34622 3.05216 7.34622 3.92308Z" fill="white" stroke="#E0E5F0"/>
<path d="M23.0386 17.7692C23.0386 18.6401 22.3326 19.3462 21.4617 19.3462C20.5908 19.3462 19.8848 18.6401 19.8848 17.7692C19.8848 16.8983 20.5908 16.1923 21.4617 16.1923C22.3326 16.1923 23.0386 16.8983 23.0386 17.7692Z" fill="white" stroke="#E0E5F0"/>
<path d="M3.65383 19.6154C3.65383 20.4863 2.94782 21.1923 2.07692 21.1923C1.20601 21.1923 0.5 20.4863 0.5 19.6154C0.5 18.7445 1.20601 18.0385 2.07692 18.0385C2.94782 18.0385 3.65383 18.7445 3.65383 19.6154Z" fill="white" stroke="#E0E5F0"/>
</svg>
