<svg width="24" height="24" viewBox="0 0 24 24" fill="none" xmlns="http://www.w3.org/2000/svg">
<path d="M2.76904 12.9231H21.2306" stroke="#E0E5F0" stroke-width="2"/>
<path d="M2.76904 19.3846H21.2306" stroke="#E0E5F0" stroke-width="2" stroke-linecap="square"/>
<path d="M2.76904 3.69231H21.2306" stroke="#E0E5F0" stroke-width="2" stroke-linecap="square"/>
<path d="M12 8.30769L12 14.7692" stroke="#E0E5F0" stroke-width="2" stroke-linecap="square"/>
<path d="M4.11516 12.9231C4.11516 13.6665 3.51247 14.2692 2.76901 14.2692C2.02555 14.2692 1.42285 13.6665 1.42285 12.9231C1.42285 12.1796 2.02555 11.5769 2.76901 11.5769C3.51247 11.5769 4.11516 12.1796 4.11516 12.9231Z" fill="white" stroke="#E0E5F0"/>
<path d="M4.11516 19.3846C4.11516 20.1281 3.51247 20.7308 2.76901 20.7308C2.02555 20.7308 1.42285 20.1281 1.42285 19.3846C1.42285 18.6412 2.02555 18.0385 2.76901 18.0385C3.51247 18.0385 4.11516 18.6412 4.11516 19.3846Z" fill="white" stroke="#E0E5F0"/>
<path d="M4.11516 3.69231C4.11516 4.43577 3.51247 5.03846 2.76901 5.03846C2.02555 5.03846 1.42285 4.43577 1.42285 3.69231C1.42285 2.94885 2.02555 2.34615 2.76901 2.34615C3.51247 2.34615 4.11516 2.94885 4.11516 3.69231Z" fill="white" stroke="#E0E5F0"/>
<circle cx="21.2309" cy="12.9231" r="1.34615" fill="white" stroke="#E0E5F0"/>
<path d="M12.0002 5.53846L14.3984 8.30769H9.60196L12.0002 5.53846Z" fill="#E0E5F0"/>
<path d="M12.0002 17.5385L14.3984 14.7692H9.60196L12.0002 17.5385Z" fill="#E0E5F0"/>
</svg>
